<?xml version="1.0" standalone="no"?>
<!DOCTYPE svg PUBLIC "-//W3C//DTD SVG 20010904//EN"
 "http://www.w3.org/TR/2001/REC-SVG-20010904/DTD/svg10.dtd">
<svg version="1.0" xmlns="http://www.w3.org/2000/svg"
 width="469.000000pt" height="423.000000pt" viewBox="0 0 469.000000 423.000000"
 preserveAspectRatio="xMidYMid meet">
<metadata>
Created by potrace 1.16, written by Peter Selinger 2001-2019
</metadata>
<g transform="translate(0.000000,423.000000) scale(0.100000,-0.100000)"
fill="#000000" stroke="none">
<path d="M1822 4079 c-103 -20 -195 -98 -232 -196 -18 -47 -20 -78 -20 -248 0
-107 -2 -195 -5 -195 -3 0 -74 40 -158 89 -186 107 -207 115 -306 109 -86 -5
-155 -35 -210 -92 -16 -17 -167 -268 -334 -558 -168 -290 -308 -531 -311 -536
-3 -5 113 -78 258 -161 144 -83 270 -157 280 -164 14 -11 -4 -24 -138 -101
-84 -48 -170 -104 -191 -124 -82 -80 -116 -214 -81 -318 25 -76 620 -1099 639
-1098 8 1 133 70 277 153 144 83 266 151 271 151 5 0 9 -81 9 -189 0 -150 3
-200 17 -241 21 -65 84 -136 155 -175 l53 -30 648 -3 647 -3 0 322 c0 297 1
321 17 315 9 -4 133 -74 276 -156 142 -83 262 -150 266 -150 16 0 620 1059
637 1116 31 107 -2 228 -83 306 -21 20 -107 75 -190 123 -84 48 -150 91 -148
95 3 5 121 74 262 155 142 82 264 153 272 160 11 11 -38 102 -290 541 -199
345 -318 542 -346 570 -61 63 -114 86 -205 92 -99 6 -126 -4 -313 -112 l-150
-86 -3 325 -2 325 -613 -1 c-336 -1 -631 -5 -655 -10z m718 -1052 c0 -8 -14
-41 -30 -74 -37 -75 -120 -155 -197 -191 l-58 -27 -563 -3 c-502 -3 -563 -1
-568 13 -10 25 44 122 100 179 55 56 111 90 173 105 21 5 287 9 591 10 455 1
552 -1 552 -12z m1315 -14 c-21 -91 -136 -216 -233 -255 -57 -23 -58 -23 -619
-26 -640 -3 -584 -12 -539 85 45 95 138 177 239 208 32 11 168 14 601 14 l558
1 -7 -27z m-1710 -388 c66 -41 98 -103 99 -190 1 -35 -1 -66 -4 -68 -3 -3
-223 -7 -490 -8 -448 -3 -488 -2 -525 14 -55 25 -84 54 -111 112 -23 49 -34
152 -17 169 4 4 230 5 503 4 l497 -3 48 -30z m1443 -48 c-5 -100 -28 -145 -97
-188 l-45 -29 -508 0 -508 0 0 150 0 150 581 0 582 0 -5 -83z m-1374 -319
c-46 -151 -179 -263 -326 -276 -40 -4 -301 -6 -580 -4 -572 3 -527 -5 -482 84
29 58 101 138 151 169 75 47 86 48 681 48 l563 1 -7 -22z m1431 -12 c95 -47
179 -144 209 -244 l8 -23 -579 3 -578 3 -56 28 c-67 32 -147 113 -183 185 -46
91 -99 83 547 80 l572 -3 60 -29z m-1202 -353 c4 -2 7 -17 7 -33 0 -27 -3 -29
-42 -32 -38 -3 -43 -6 -46 -30 -3 -25 0 -27 40 -30 40 -3 43 -5 46 -35 3 -33
3 -33 -42 -33 l-45 0 -3 -137 -3 -138 -40 0 -40 0 -3 138 c-2 129 -4 137 -22
137 -16 0 -20 7 -20 35 0 28 4 35 19 35 14 0 20 10 24 38 9 50 31 80 70 91 29
9 80 6 100 -6z m-693 -78 l0 -86 31 23 c22 17 44 23 80 23 42 0 53 -5 81 -33
l33 -32 0 -143 0 -142 -37 -3 -38 -3 0 104 c0 123 -11 164 -47 173 -36 9 -75
-7 -90 -36 -8 -15 -13 -66 -13 -133 l0 -108 -37 3 -38 3 -3 238 -2 237 40 0
40 0 0 -85z m-219 43 c21 -12 39 -24 39 -28 0 -4 -19 -35 -36 -58 -1 -2 -20 6
-43 17 -44 23 -120 28 -139 9 -7 -7 -12 -24 -12 -40 0 -32 25 -48 104 -67 70
-17 104 -37 126 -74 26 -42 25 -86 -3 -128 -35 -52 -79 -71 -158 -66 -68 4
-157 39 -166 65 -3 7 5 24 17 37 l23 24 45 -26 c51 -30 128 -37 155 -14 10 7
17 26 17 42 0 33 -22 46 -122 74 -31 8 -70 27 -87 41 -71 59 -39 184 55 214
44 14 141 3 185 -22z m1069 -43 l0 -45 45 0 c45 0 45 0 45 -35 0 -35 0 -35
-45 -35 l-45 0 0 -95 c0 -84 2 -95 20 -105 11 -6 31 -8 45 -4 23 6 25 3 25
-25 0 -37 -22 -51 -80 -51 -30 0 -47 6 -65 25 -24 23 -25 30 -25 140 l0 115
-25 0 c-22 0 -25 4 -25 35 0 31 3 35 25 35 23 0 25 4 25 45 l0 45 40 0 40 0 0
-45z m380 -57 c52 -27 90 -89 90 -150 l0 -38 -125 0 c-69 0 -125 -2 -125 -5 0
-16 31 -63 45 -69 31 -11 87 -6 116 11 28 17 30 17 52 -5 l22 -23 -30 -25
c-56 -45 -160 -46 -219 -1 -100 77 -85 251 26 306 55 27 93 27 148 -1z m-822
-160 l-3 -173 -37 -3 -38 -3 0 175 0 176 40 0 40 0 -2 -172z m1262 143 c0 -23
-21 -54 -95 -138 l-96 -108 96 -3 95 -3 0 -35 0 -35 -147 3 -148 3 -3 28 c-3
22 14 46 92 135 l96 107 -90 3 -90 3 0 34 0 35 145 0 145 0 0 -29z"/>
</g>
</svg>
